/* XPM */
static char * glacier_xpm[] = {
"32 32 2 1",
" 	c #B3E7FF",
".	c #FFFFFF",
"             ....               ",
"                                ",
"                                ",
"                                ",
"                                ",
"                                ",
"                                ",
"                                ",
"                    ...         ",
"      ....                      ",
"                                ",
"                                ",
"                                ",
"                                ",
"                             ...",
"                                ",
"           ......               ",
"                                ",
"                                ",
"                                ",
"                                ",
"                       ...      ",
"                                ",
"                                ",
"                                ",
"     ....                       ",
"                                ",
"                                ",
"                 ...            ",
"                                ",
"                                ",
"..                            .."};
