/* XPM */
static char * grassland_xpm[] = {
"32 32 2 1",
" 	c #7CFF67",
".	c #ACBB07",
"                                ",
"                                ",
"                                ",
"                                ",
"    . .    . .    . .    . .    ",
"    . .    . .    . .    . .    ",
"    . .    . .    . .    . .    ",
"                                ",
"                                ",
"                                ",
"                                ",
"                                ",
"   . .    . .    . .    . .     ",
"   . .    . .    . .    . .     ",
"   . .    . .    . .    . .     ",
"                                ",
"                                ",
"                                ",
"                                ",
"                                ",
"                                ",
"     . .    . .    . .    . .   ",
"     . .    . .    . .    . .   ",
"     . .    . .    . .    . .   ",
"                                ",
"                                ",
"                                ",
". .     . .    . .    . .       ",
". .     . .    . .    . .       ",
". .     . .    . .    . .       ",
"                                ",
"                                "};
