/* XPM */
static char * highway_path_xpm[] = {
"32 3 2 1",
".	c #000000",
"+	c #E22C2C",
"...++++++++++++...++++++++++++++",
"...++++++++++++...++++++++++++++",
"...++++++++++++...++++++++++++++"};
