/* XPM */
static char * allotments_xpm[] = {
"32 32 2 1",
" 	c #E63100",
".	c #000000",
"                                ",
"                                ",
"                                ",
"                                ",
"                                ",
"       .                        ",
"      ...                       ",
"     .. ..                      ",
"    ..   ..                     ",
"   ...   ...                    ",
"     .   .                      ",
"     .....            .         ",
"                     ...        ",
"                    .. ..       ",
"                   ..   ..      ",
"                  ...   ...     ",
"                    .   .       ",
"                    .....       ",
"                                ",
"          .                     ",
"         ...                    ",
"        .. ..                   ",
"       ..   ..                  ",
"      ...   ...                 ",
"        .   .                   ",
"        .....                   ",
"                                ",
"                                ",
"                                ",
"                                ",
"                                ",
"                                "};
