/* XPM */
static char * barrier_fence_xpm[] = {
"32 4 2 1",
" 	c #FF0000",
".	c #FFFFFF",
"   ..   ..   ..   ..   ..    ...",
"   ..   ..   ..   ..   ..    ...",
"   ..   ..   ..   ..   ..    ...",
"   ..   ..   ..   ..   ..    ..."};
