/* XPM */
static char * barrier_ditch_xpm[] = {
"32 2 2 1",
" 	c #FF0000",
".	c #FFFFFF",
"   ..   ..   ..   ..   ..    ...",
"   ..   ..   ..   ..   ..    ..."};
