/* XPM */
static char * cemetery_xpm[] = {
"32 32 2 1",
" 	c #00BA1A",
".	c #000000",
"                                ",
"                             .  ",
"                .            .  ",
"        .       .          .....",
"        .     .....          .  ",
"      .....     .            .  ",
"        .       .            .  ",
"        .       .            .  ",
"        .       .               ",
"        .           .           ",
"                    .           ",
"                  .....         ",
"     .              .     .     ",
"     .              .     .     ",
"   .....            .   .....   ",
"     .              .     .     ",
"     .     .              .     ",
"     .     .              .     ",
"     .   .....            .     ",
"           .                    ",
"           .                    ",
"           .        .           ",
"           .        .           ",
"      .           .....         ",
"      .             .           ",
"    .....           .           ",
"      .             .           ",
"      .             .           ",
"      .                         ",
"      .                         ",
"                                ",
"                                "};
