/* XPM */
static char * cutline_xpm[] = {
"32 2 2 1",
" 	c None",
".	c #000000",
"............................    ",
"............................    "};
