/* XPM */
static char * drain_xpm[] = {
"32 5 2 1",
" 	c #E60067",
".	c #75C2FC",
"                                ",
"................................",
"................................",
"................................",
"                                "};
