/* XPM */
static char * highway_primary_xpm[] = {
"32 8 2 1",
".	c #626262",
"+	c #C10000",
"................................",
"................................",
"++++++++++++++++++++++++++++++++",
"++++++++++++++++++++++++++++++++",
"++++++++++++++++++++++++++++++++",
"++++++++++++++++++++++++++++++++",
"................................",
"................................"};
