/* XPM */
static char * highway_service_xpm[] = {
"32 4 2 1",
".	c #000000",
"+	c #A0A0A0",
"................................",
"++++++++++++++++++++++++++++++++",
"++++++++++++++++++++++++++++++++",
"................................"};
