/* XPM */
static char * highway_asphalt_xpm[] = {
"32 4 2 1",
".	c #000000",
"+	c #4A4A4A",
"................................",
"++++++++++++++++++++++++++++++++",
"++++++++++++++++++++++++++++++++",
"................................"};
