/* XPM */
static char * highway_ground_xpm[] = {
"32 4 2 1",
".	c #000000",
"+	c #B49947",
"................................",
"++++++++++++++++++++++++++++++++",
"++++++++++++++++++++++++++++++++",
"................................"};
