/* XPM */
static char * highway_path_xpm[] = {
"32 2 2 1",
" 	c None",
".	c #000000",
"   ......  ......   .....  .....",
"   ......  ......   .....  ....."};
