/* XPM */
static char * industrial_xpm[] = {
"32 32 2 1",
" 	c #A72300",
".	c #000000",
"           .                    ",
"          ...                   ",
"           .                    ",
"                                ",
"       .        .               ",
"      ...      ...          .   ",
"       .        .          ...  ",
"                            .   ",
"                                ",
"                                ",
"                                ",
"                                ",
"                                ",
"                 .        .     ",
"                ...      ...    ",
"     .      .    .        .     ",
"    ...    ...                  ",
"     .      .                   ",
"                                ",
"                                ",
"                                ",
"              .                 ",
"             ...       .        ",
"      .       .       ...       ",
"     ...               .        ",
"      .                         ",
"                                ",
"                  .             ",
"                 ...            ",
"                  .           . ",
"                             ...",
"                              . "};
