/* XPM */
static char * logging_xpm[] = {
"32 32 2 1",
" 	c #054600",
".	c #097900",
"                                ",
"................................",
"                                ",
"................................",
"                                ",
"................................",
"                                ",
"................................",
"                                ",
"................................",
"                                ",
"................................",
"                                ",
"................................",
"                                ",
"................................",
"                                ",
"................................",
"                                ",
"................................",
"                                ",
"................................",
"                                ",
"................................",
"                                ",
"................................",
"                                ",
"................................",
"                                ",
"................................",
"                                ",
"................................"};
