/* XPM */
static char * meadow_xpm[] = {
"32 32 2 1",
" 	c #E8E785",
".	c #9AB100",
"                                ",
"                                ",
"                                ",
"   . . .             . . .      ",
"   . . .             . . .      ",
"   . . .             . . .      ",
"   . . .             . . .      ",
"   . . .             . . .      ",
"                                ",
"           . . .                ",
"           . . .                ",
"           . . .                ",
"           . . .           . . .",
"           . . .           . . .",
"    . . .                  . . .",
"    . . .                  . . .",
"    . . .                  . . .",
"    . . .       . . .           ",
"    . . .       . . .           ",
"                . . .           ",
"                . . .           ",
"                . . .           ",
"      . . .                     ",
"      . . .                     ",
"      . . .                     ",
"      . . .                     ",
"      . . .                     ",
"                       . . .    ",
"                       . . .    ",
"                       . . .    ",
"                       . . .    ",
"                       . . .    "};
