/* XPM */
static char * pipeline_water_xpm[] = {
"32 5 2 1",
" 	c #FF0000",
".	c #001EFF",
"                                ",
"................................",
"................................",
"................................",
"                                "};
