/* XPM */
static char * pipeline_gas_xpm[] = {
"32 5 2 1",
" 	c #FF0000",
".	c #B9F0F6",
"                                ",
"................................",
"................................",
"................................",
"                                "};
