/* XPM */
static char * place_village_xpm[] = {
"32 32 2 1",
" 	c #E63100",
".	c #E8E785",
"                            .   ",
"      .    .       .       ...  ",
"     ...  ...     ...       .   ",
"   .  .    .       .            ",
"  ...                    .      ",
"   .                .   ...     ",
"          .        ...   .      ",
"       . ...   .    .           ",
"      ... .   ...       .       ",
"   .   .       .       ...  .   ",
"  ...                   .  ...  ",
"   .    .           .       .   ",
"       ...   .     ...          ",
"        .   ...     .           ",
"             .          .       ",
" .   .                 ...  .   ",
"... ...                 .  ...  ",
" .   .           .          .   ",
"                ...             ",
"        .    .   .              ",
"       ...  ...    .    .       ",
"        .    .    ...  ...    . ",
"   .       .       .    .    ...",
"  ...     ... .               . ",
"   .       . ...   .            ",
"              .   ...     .     ",
"    .              .     ...    ",
"   ...                    .     ",
"    .   .    .                  ",
"       ...  ...       .      .  ",
"        .    .       ...    ... ",
"                      .      .  "};
