/* XPM */
static char * power_line_xpm[] = {
"32 5 2 1",
" 	c None",
".	c #FF0000",
"  ..  ..                        ",
"  ..  ..                        ",
"................................",
"  ..  ..                        ",
"  ..  ..                        "};
