/* XPM */
static char * scrub_xpm[] = {
"32 32 2 1",
" 	c #E8E785",
".	c #2C9D00",
"                                ",
"        .                       ",
"        .                       ",
"     .  .  .                    ",
"     .. . ..                    ",
"      .....         .           ",
"       ...          .           ",
"        .        .  .  .        ",
"                 .. . ..        ",
"                  .....         ",
"                   ...      .   ",
"                    .       .   ",
"                         .  .  .",
"                         .. . ..",
"         .                ..... ",
"         .                 ...  ",
"      .  .  .               .   ",
"      .. . ..                   ",
"       .....                    ",
"        ...                     ",
"         .                      ",
"                      .         ",
"     .                .         ",
"     .             .  .  .      ",
"  .  .  .          .. . ..      ",
"  .. . ..           .....       ",
"   .....             ...        ",
"    ...               .         ",
"     .                          ",
"                                ",
"                                ",
"                                "};
