/* XPM */
static char * stream_xpm[] = {
"32 5 2 1",
" 	c #E8E785",
".	c #0971BD",
"                                ",
"................................",
"................................",
"................................",
"                                "};
