/* XPM */
static char * unknown_xpm[] = {
"32 32 2 1",
" 	c #0E9B00",
".	c #076B01",
"   ..........................   ",
"    ........................    ",
"     ......................     ",
".     ....................     .",
"..     ..................     ..",
"...     ................     ...",
"....     ..............     ....",
".....     ............     .....",
"......     ..........     ......",
".......     ........     .......",
"........     ......     ........",
".........     ....     .........",
"..........     ..     ..........",
"...........          ...........",
"............        ............",
".............      .............",
".............      .............",
"............        ............",
"...........          ...........",
"..........     ..     ..........",
".........     ....     .........",
"........     ......     ........",
".......     ........     .......",
"......     ..........     ......",
".....     ............     .....",
"....     ..............     ....",
"...     ................     ...",
"..     ..................     ..",
".     ....................     .",
"     ......................     ",
"    ........................    ",
"   ..........................   "};
