/* XPM */
static char * water_intermittent_xpm[] = {
"32 32 2 1",
" 	c #8282FF",
".	c #E8E785",
"                                ",
"................................",
"                                ",
"                                ",
"................................",
"                                ",
"                                ",
"................................",
"                                ",
"                                ",
"................................",
"                                ",
"                                ",
"................................",
"                                ",
"                                ",
"................................",
"                                ",
"                                ",
"................................",
"                                ",
"                                ",
"................................",
"                                ",
"                                ",
"................................",
"                                ",
"                                ",
"................................",
"                                ",
"                                ",
"                                "};
