/* XPM */
static char * wetland_xpm[] = {
"32 32 2 1",
" 	c #94C2E6",
".	c #FFFFFF",
"                                ",
"                                ",
"   ....                         ",
"                                ",
"               ........         ",
"                                ",
"                                ",
"    .........                   ",
"                         .......",
"                                ",
"                                ",
"                                ",
"                                ",
"           ..........           ",
"                                ",
"                                ",
"                    ......      ",
"   ........                     ",
"                                ",
"                                ",
"           .........            ",
"                                ",
"                                ",
"                     ....       ",
".......                         ",
"                                ",
"                                ",
"   .........        .........   ",
"                                ",
"                                ",
"                                ",
"                                "};
