/* XPM */
static char * wood_xpm[] = {
"32 32 2 1",
" 	c #2C9D00",
".	c #000000",
"                                ",
"                                ",
"                                ",
"                                ",
"        .                       ",
"       ...                      ",
"        .                       ",
"       ...                      ",
"      .....                     ",
"     .. . ..                    ",
"     .  .  .                    ",
"        .                       ",
"                    ...         ",
"                   .....        ",
"                   .....        ",
"                    ...         ",
"                     .          ",
"                     .          ",
"                     .          ",
"                                ",
"                                ",
"        ...               .     ",
"       .....             ...    ",
"       .....              .     ",
"        ...              ...    ",
"         .              .....   ",
"         .             .. . ..  ",
"         .             .  .  .  ",
"                          .     ",
"                                ",
"                                ",
"                                "};
