/* XPM */
static char * wood_needleleaved_xpm[] = {
"32 32 2 1",
" 	c #1F6F00",
".	c #000000",
"                                ",
"                                ",
"                                ",
"                                ",
"        .                       ",
"       ...                      ",
"        .                       ",
"       ...                      ",
"      .....            .        ",
"     .. . ..          ...       ",
"     .  .  .           .        ",
"        .             ...       ",
"                     .....      ",
"                    .. . ..     ",
"                    .  .  .     ",
"                       .        ",
"                                ",
"                                ",
"          .                     ",
"         ...                    ",
"          .                     ",
"         ...              .     ",
"        .....            ...    ",
"       .. . ..            .     ",
"       .  .  .           ...    ",
"          .             .....   ",
"                       .. . ..  ",
"                       .  .  .  ",
"                          .     ",
"                                ",
"                                ",
"                                "};
