/* XPM */
static char * wood_broadleaved_xpm[] = {
"32 32 2 1",
" 	c #38C700",
".	c #000000",
"                                ",
"                                ",
"                                ",
"                                ",
"                        ...     ",
"                       .....    ",
"                       .....    ",
"       ...              ...     ",
"      .....              .      ",
"      .....              .      ",
"       ...               .      ",
"        .                       ",
"        .           ...         ",
"        .          .....        ",
"                   .....        ",
"                    ...         ",
"                     .          ",
"                     .          ",
"                     .          ",
"                                ",
"          ...                   ",
"         .....                  ",
"         .....                  ",
"          ...                   ",
"           .                    ",
"           .                ... ",
"           .               .....",
"                           .....",
"                            ... ",
"                             .  ",
"                             .  ",
"                             .  "};
